<svg xmlns="http://www.w3.org/2000/svg" width="30" height="30" viewBox="0 0 46 46"><defs><style>.a,.d{fill:none;}.a{stroke:#3aacc2;stroke-width:3px;}.b{fill:#fff;}.c{stroke:none;}</style></defs><g transform="translate(-5.05 -27)"><g class="a" transform="translate(5.05 27)"><circle class="c" cx="23" cy="23" r="23"/><circle class="d" cx="23" cy="23" r="21.5"/></g><g transform="translate(24 36)"><circle class="b" cx="3" cy="3" r="3" transform="translate(1.05 20)"/><path class="b" d="M0,11.787V3.215H0A3.112,3.112,0,0,1,3,0,3.112,3.112,0,0,1,6,3.215c0,.027,0,.054,0,.081v8.491A3.112,3.112,0,0,1,3,15,3.113,3.113,0,0,1,0,11.787Z" transform="translate(1.05 2)"/></g></g></svg>